<svg xmlns="http://www.w3.org/2000/svg" xmlns:xlink="http://www.w3.org/1999/xlink" viewBox="0 0 893.76 224.68"><defs><style>.cls-1{fill:url(#linear-gradient);}.cls-2{fill:url(#linear-gradient-2);}.cls-3{fill:url(#linear-gradient-3);}.cls-4{fill:url(#linear-gradient-4);}.cls-5{fill:url(#linear-gradient-5);}.cls-6{fill:url(#linear-gradient-6);}.cls-7{fill:url(#linear-gradient-7);}.cls-8{fill:url(#linear-gradient-8);}.cls-9{fill:url(#linear-gradient-9);}.cls-10{fill:url(#linear-gradient-10);}</style><linearGradient id="linear-gradient" x1="287.94" y1="-85.09" x2="704.82" y2="422.51" gradientUnits="userSpaceOnUse"><stop offset="0" stop-color="#262262"/><stop offset="1" stop-color="#1c75bc"/></linearGradient><linearGradient id="linear-gradient-2" x1="363.77" y1="-147.37" x2="780.65" y2="360.23" xlink:href="#linear-gradient"/><linearGradient id="linear-gradient-3" x1="496.99" y1="-256.78" x2="913.87" y2="250.82" xlink:href="#linear-gradient"/><linearGradient id="linear-gradient-4" x1="434.55" y1="-205.5" x2="851.43" y2="302.1" xlink:href="#linear-gradient"/><linearGradient id="linear-gradient-5" x1="557.97" y1="-306.86" x2="974.85" y2="200.74" xlink:href="#linear-gradient"/><linearGradient id="linear-gradient-6" x1="271.85" y1="-71.88" x2="688.73" y2="435.72" xlink:href="#linear-gradient"/><linearGradient id="linear-gradient-7" x1="222.63" y1="-31.46" x2="639.51" y2="476.14" xlink:href="#linear-gradient"/><linearGradient id="linear-gradient-8" x1="323.86" y1="-114.6" x2="740.74" y2="393" xlink:href="#linear-gradient"/><linearGradient id="linear-gradient-9" x1="203.21" y1="-34.64" x2="90.89" y2="155.44" xlink:href="#linear-gradient"/><linearGradient id="linear-gradient-10" x1="210.24" y1="-30.49" x2="97.92" y2="159.59" xlink:href="#linear-gradient"/></defs><g id="Layer_2" data-name="Layer 2"><g id="Layer_1-2" data-name="Layer 1"><path class="cls-1" d="M379.51,69.37q0-21.32,0-42.61c0-2.6,0-2.61,2.53-2.61,13.64,0,27.27-.07,40.91,0,9.21.07,18.13,1.68,26.42,5.9,12.5,6.38,20.29,16.39,22.74,30.28a48.89,48.89,0,0,1-1.95,25.56,40,40,0,0,1-16.45,20.4,52.65,52.65,0,0,1-22.56,7.81,84.49,84.49,0,0,1-10.31.57q-19.36,0-38.74,0c-2.59,0-2.59,0-2.59-2.55Zm25.92,0q0,11.11,0,22.23c0,.46,0,.92,0,1.38a.92.92,0,0,0,1,1l.92,0h15.28a26.09,26.09,0,0,0,11.5-2.54,21,21,0,0,0,10.64-10.91,29.33,29.33,0,0,0,1.48-17.27A21.1,21.1,0,0,0,434,47.41a25.42,25.42,0,0,0-10.73-2.5c-5.25-.06-10.5,0-15.74,0-2,0-2.07,0-2.07,2.07C405.43,54.42,405.44,61.88,405.43,69.33Z"/><path class="cls-2" d="M592.08,69.41a44.48,44.48,0,0,1-9.83,28.93c-7,8.77-16.22,14.11-27.09,16.67a56.81,56.81,0,0,1-14.7,1.5c-10.67-.31-20.66-3-29.47-9.21a44,44,0,0,1-18.82-30A47.78,47.78,0,0,1,494,54a44.08,44.08,0,0,1,15.06-21,50.17,50.17,0,0,1,25-10.09,57.9,57.9,0,0,1,8.92-.53c11.46.33,22.07,3.34,31.25,10.41A44.25,44.25,0,0,1,591.77,63.4C592,65.4,592,67.4,592.08,69.41ZM566,69a26.22,26.22,0,0,0-1-7.47c-2-7-6.14-12.38-12.86-15.52a23.79,23.79,0,0,0-12.64-2c-9.68.93-16.32,6-20,15a28.36,28.36,0,0,0-1.22,17,23.4,23.4,0,0,0,11.37,16,23.67,23.67,0,0,0,14.55,3,22.55,22.55,0,0,0,17.29-10C564.71,80.27,566,75.05,566,69Z"/><path class="cls-3" d="M746.43,61.11c1.48-1.55,2.84-2.93,4.16-4.35,1.79-1.92,3.54-3.87,5.33-5.79q12-12.87,24-25.73a3.13,3.13,0,0,1,2.54-1.13q12.42,0,24.85,0c.11,0,.21,0,.31,0,.43.07,1-.18,1.21.39s-.32.72-.59,1L796.72,38,776.34,60.13c-.87.95-1.78,1.86-2.66,2.81-1.19,1.29-1.18,1.37-.06,2.83L798.52,98q5.7,7.39,11.4,14.79c.35.47,1.08.94.76,1.56s-1.13.32-1.71.32c-8.6,0-17.19,0-25.79,0a3.56,3.56,0,0,1-3.11-1.55Q768.52,98.42,756.89,83.7c-1.26-1.6-1.28-1.61-2.72-.09-2.2,2.31-4.35,4.66-6.58,6.94a4.89,4.89,0,0,0-1.43,3.73c.08,5.92,0,11.83,0,17.75V113c0,1.61-.14,1.74-1.8,1.74H722.47c-1.63,0-1.75-.14-1.77-1.76s0-3.19,0-4.79q0-40.68,0-81.36c0-2.7-.21-2.67,2.72-2.67h20.69c2,0,2.08.06,2.08,2.09q0,16.35,0,32.72A5.43,5.43,0,0,0,746.43,61.11Z"/><path class="cls-4" d="M660.52,116.53a55.07,55.07,0,0,1-23.64-5.1A45,45,0,0,1,611,74.65a48.92,48.92,0,0,1,2.25-21,44.45,44.45,0,0,1,21.31-25,50.52,50.52,0,0,1,19.66-5.95A56.72,56.72,0,0,1,683.36,27a43.38,43.38,0,0,1,14.91,11l.29.36c.91,1.17.94,1.2-.2,2.24q-7.08,6.45-14.17,12.87c-1,.87-1.13.87-2-.06a40.7,40.7,0,0,0-4.39-4.12,24.72,24.72,0,0,0-14.67-5.38A26.88,26.88,0,0,0,650.9,46a22.64,22.64,0,0,0-13,15.36,29.59,29.59,0,0,0,.43,17.5c2.89,8.59,8.9,13.86,17.75,15.6,9.43,1.86,17.73-.53,24.58-7.45.62-.62,1.23-1.25,1.83-1.88A.81.81,0,0,1,683.7,85c.28.23.57.43.84.68q6.75,6.11,13.5,12.22c1.53,1.4,1.53,1.44.11,3a43.8,43.8,0,0,1-17.37,12A53.36,53.36,0,0,1,665,116.32C663.5,116.41,662,116.57,660.52,116.53Z"/><path class="cls-5" d="M853.15,24.12q19.08,0,38.14,0c2.46,0,2.46,0,2.46,2.48V42.19c0,.31,0,.62,0,.93-.06,1.36-.19,1.52-1.54,1.53-3,0-6,0-9,0h-15c-2.24,0-2.24,0-2.24,2.19v36.9q0,14.37,0,28.72c0,2.23,0,2.24-2.22,2.24H841.42a1,1,0,0,1-1.16-1.13c0-.56,0-1.13,0-1.7V47.18c0-2.73.14-2.53-2.51-2.53H814.58c-2,0-2.09,0-2.09-2.06,0-5.45,0-10.91,0-16.37,0-.25,0-.51,0-.77.08-1.08.23-1.25,1.28-1.32.46,0,.93,0,1.39,0Z"/><path class="cls-6" d="M486,177.77a19.12,19.12,0,0,1,2.7,1.92c2.4,2.32,3.49,5.29,4.24,8.43.87,3.6,1.68,7.21,2.74,10.77.24.78.51,1.56.82,2.33.24.61.17,1-.56,1.08a46.33,46.33,0,0,1-5.4,0c-.79-.05-1.15-.61-1.36-1.28-.45-1.48-.92-2.95-1.3-4.44-.65-2.55-1.24-5.11-1.85-7.66a19.64,19.64,0,0,0-1.3-3.78,8.25,8.25,0,0,0-7.47-4.9c-1.84-.11-3.7-.07-5.55-.05-1.45,0-1.57.12-1.57,1.61q0,7.72,0,15.44c0,1.19,0,2.37,0,3.55s-.2,1.51-1.54,1.56-2.57,0-3.85,0-1.43-.25-1.5-1.45c0-.31,0-.62,0-.93V153.79c0-2.23,0-2.31,2.09-2.59,5.93-.78,11.88-1.23,17.82-.14a17.37,17.37,0,0,1,6.3,2.42c6.78,4.31,7.34,14.65,2.24,20.1a14.6,14.6,0,0,1-4.29,3.23A2.49,2.49,0,0,0,486,177.77Zm-15.86-12.15c0,2.62,0,5.25,0,7.87,0,1.11.14,1.31,1.05,1.31,2.92,0,5.86.24,8.77-.3,5.9-1.09,9.2-6,7.82-11.82a7.8,7.8,0,0,0-5-5.67c-3.76-1.51-7.65-1.33-11.55-.77-1,.14-1.11.39-1.12,1.52C470.15,160.38,470.17,163,470.17,165.62Z"/><path class="cls-7" d="M379.51,176.49V153.63c0-.25,0-.51,0-.77,0-2,.05-2.08,2.08-2.08h23.77c.36,0,.72,0,1.08,0a.92.92,0,0,1,.95,1c0,1.28,0,2.57,0,3.86a1,1,0,0,1-1.08,1l-1.39,0H388.71c-.46,0-.93,0-1.39,0a.83.83,0,0,0-.88.87q0,.54,0,1.08v11.74q0,.54,0,1.08a.87.87,0,0,0,.88.89c.46,0,.92,0,1.39,0h15.74c1.58.06,1.73.21,1.76,1.83,0,.82,0,1.64,0,2.47,0,1.37-.17,1.51-1.49,1.57-.41,0-.82,0-1.23,0-5.1,0-10.19,0-15.29,0-1.68,0-1.77.08-1.77,1.72q0,7.33,0,14.67c0,1.65.07,1.71,1.77,1.71H406c.41,0,.82,0,1.23,0,1.19.05,1.35.18,1.4,1.34a31.83,31.83,0,0,1,0,3.24c0,1-.26,1.21-1.31,1.31-.31,0-.62,0-.93,0H381.94c-2.41,0-2.43,0-2.43-2.4Z"/><path class="cls-8" d="M550.6,176.7V154.15c0-.41,0-.82,0-1.23,0-1.31.08-1.4,1.33-1.63,1-.18,2-.33,3-.42,4.93-.44,9.85-.82,14.76.16a19.21,19.21,0,0,1,5.92,2.15,13,13,0,0,1,6.51,9.8,18.69,18.69,0,0,1-.22,6.75,14.2,14.2,0,0,1-7.25,9.7,22.89,22.89,0,0,1-8.66,2.63,28.61,28.61,0,0,1-6.92,0c-1.58-.19-1.6-.13-1.6,1.52v15.9c0,.41,0,.82,0,1.23,0,1.35-.2,1.55-1.51,1.59s-2.57,0-3.86,0-1.51-.23-1.54-1.55,0-2.37,0-3.55Zm6.93-10.46h0c0,2.83,0,5.66,0,8.49,0,1.32.2,1.45,1.5,1.65a22,22,0,0,0,7.06,0c3.81-.66,6.91-2.31,8.5-6.08a11.39,11.39,0,0,0,.77-4.83,8.71,8.71,0,0,0-6.7-8.73c-3.13-.93-6.32-.69-9.49-.47-1.58.11-1.64.3-1.65,2C557.52,160.89,557.53,163.57,557.53,166.24Z"/><path class="cls-9" d="M197.47,140.36H109.53c-20.51,0-39.09-6.27-52.53-16.42a62.5,62.5,0,0,1-5.1-4.26h0C41.48,110,35.25,97.73,35.25,84.32h87.94c20.52,0,39.08,6.27,52.53,16.41S197.47,124.88,197.47,140.36Z"/><path class="cls-10" d="M290.4,109.2c-5.66-91.27-82.5-106-92.85-107.59a19.26,19.26,0,0,0-2-.2L169.47.12Q168.24,0,167,0h-.68l-91,2.39L0,4.38A56.55,56.55,0,0,0,26.11,51.17,51.24,51.24,0,0,0,53.33,59l1.36,0,12.49-.33L135,56.88l53.08-.26c9.9,0,19.51,4.39,27,11.14,10.51,9.44,22.84,24.92,23.7,49.66.66,18.77-5.86,30.83-13.49,38.48a43.26,43.26,0,0,1-29.76,12.68l-3,.06H78.9a58.15,58.15,0,0,0,3.74,20.63,56.32,56.32,0,0,0,11.89,19,52,52,0,0,0,37.74,16.41h9.83a52.73,52.73,0,0,0,6.06-.36c.48,0,1,0,1.46,0,12.28-.7,31.78-1.92,62.7-4.07C296.48,214.39,290.4,109.2,290.4,109.2Z"/></g></g></svg>