<svg xmlns="http://www.w3.org/2000/svg" xmlns:xlink="http://www.w3.org/1999/xlink" viewBox="0 0 743.88 575.35"><defs><style>.cls-1{fill:url(#linear-gradient);}.cls-2{fill:url(#linear-gradient-2);}</style><linearGradient id="linear-gradient" x1="603.09" y1="456.56" x2="187.41" y2="224.43" gradientUnits="userSpaceOnUse"><stop offset="0" stop-color="#262262"/><stop offset="1" stop-color="#1c75bc"/></linearGradient><linearGradient id="linear-gradient-2" x1="613.49" y1="396.32" x2="217.49" y2="175.18" xlink:href="#linear-gradient"/></defs><g id="Layer_2" data-name="Layer 2"><g id="Layer_1-2" data-name="Layer 1"><path class="cls-1" d="M505.68,357.91H280.47c-52.52,0-100.09-16.06-134.51-42q-6.9-5.22-13.07-10.93h0c-26.66-24.69-42.64-56.2-42.64-90.53H315.47c52.53,0,100.07,16.06,134.5,42S505.68,318.29,505.68,357.91Z"/><path class="cls-2" d="M743.63,279.63C729.15,45.92,532.38,8.16,505.89,4.13c-1.72-.26-3.44-.43-5.17-.52L434,.31c-2.1-.2-4.22-.31-6.36-.31l-1.75,0-233,6.13L0,11.21C1.22,62.39,27.83,106.64,66.86,131a131,131,0,0,0,69.71,20.09c1.16,0,2.32,0,3.48-.05l32-.84,173.77-4.56L481.72,145c25.35-.13,49.95,11.23,69.22,28.54,26.91,24.17,58.5,63.81,60.7,127.16,1.67,48.06-15,78.94-34.55,98.53a110.65,110.65,0,0,1-76.21,32.46l-7.72.17H202a149.06,149.06,0,0,0,9.57,52.81,144.31,144.31,0,0,0,30.46,48.66c24.74,26,58.91,42,96.65,42h25.16a132.49,132.49,0,0,0,15.51-.93c1.24,0,2.5,0,3.76-.06,31.43-1.77,81.36-4.9,160.55-10.4C759.2,549,743.63,279.63,743.63,279.63Z"/></g></g></svg>